<svg width="36" height="36" viewBox="0 0 36 36" fill="none" xmlns="http://www.w3.org/2000/svg">
                                    <path d="M18 10.35C20.475 10.35 20.8125 10.35 21.825 10.35C22.725 10.35 23.175 10.575 23.5125 10.6875C23.9625 10.9125 24.3 11.025 24.6375 11.3625C24.975 11.7 25.2 12.0375 25.3125 12.4875C25.425 12.825 25.5375 13.275 25.65 14.175C25.65 15.1875 25.65 15.4125 25.65 18C25.65 20.5875 25.65 20.8125 25.65 21.825C25.65 22.725 25.425 23.175 25.3125 23.5125C25.0875 23.9625 24.975 24.3 24.6375 24.6375C24.3 24.975 23.9625 25.2 23.5125 25.3125C23.175 25.425 22.725 25.5375 21.825 25.65C20.8125 25.65 20.5875 25.65 18 25.65C15.4125 25.65 15.1875 25.65 14.175 25.65C13.275 25.65 12.825 25.425 12.4875 25.3125C12.0375 25.0875 11.7 24.975 11.3625 24.6375C11.025 24.3 10.8 23.9625 10.6875 23.5125C10.575 23.175 10.4625 22.725 10.35 21.825C10.35 20.8125 10.35 20.5875 10.35 18C10.35 15.4125 10.35 15.1875 10.35 14.175C10.35 13.275 10.575 12.825 10.6875 12.4875C10.9125 12.0375 11.025 11.7 11.3625 11.3625C11.7 11.025 12.0375 10.8 12.4875 10.6875C12.825 10.575 13.275 10.4625 14.175 10.35C15.1875 10.35 15.525 10.35 18 10.35ZM18 8.66248C15.4125 8.66248 15.1875 8.66248 14.175 8.66248C13.1625 8.66248 12.4875 8.88748 11.925 9.11248C11.3625 9.33748 10.8 9.67498 10.2375 10.2375C9.67498 10.8 9.44998 11.25 9.11248 11.925C8.88748 12.4875 8.77498 13.1625 8.66248 14.175C8.66248 15.1875 8.66248 15.525 8.66248 18C8.66248 20.5875 8.66248 20.8125 8.66248 21.825C8.66248 22.8375 8.88748 23.5125 9.11248 24.075C9.33748 24.6375 9.67498 25.2 10.2375 25.7625C10.8 26.325 11.25 26.55 11.925 26.8875C12.4875 27.1125 13.1625 27.225 14.175 27.3375C15.1875 27.3375 15.525 27.3375 18 27.3375C20.475 27.3375 20.8125 27.3375 21.825 27.3375C22.8375 27.3375 23.5125 27.1125 24.075 26.8875C24.6375 26.6625 25.2 26.325 25.7625 25.7625C26.325 25.2 26.55 24.75 26.8875 24.075C27.1125 23.5125 27.225 22.8375 27.3375 21.825C27.3375 20.8125 27.3375 20.475 27.3375 18C27.3375 15.525 27.3375 15.1875 27.3375 14.175C27.3375 13.1625 27.1125 12.4875 26.8875 11.925C26.6625 11.3625 26.325 10.8 25.7625 10.2375C25.2 9.67498 24.75 9.44998 24.075 9.11248C23.5125 8.88748 22.8375 8.77498 21.825 8.66248C20.8125 8.66248 20.5875 8.66248 18 8.66248Z" fill="#B3B3B3" />
                                    <path d="M18 13.1625C15.3 13.1625 13.1625 15.3 13.1625 18C13.1625 20.7 15.3 22.8375 18 22.8375C20.7 22.8375 22.8375 20.7 22.8375 18C22.8375 15.3 20.7 13.1625 18 13.1625ZM18 21.15C16.3125 21.15 14.85 19.8 14.85 18C14.85 16.3125 16.2 14.85 18 14.85C19.6875 14.85 21.15 16.2 21.15 18C21.15 19.6875 19.6875 21.15 18 21.15Z" fill="#B3B3B3" />
                                    <path d="M22.95 14.175C23.5713 14.175 24.075 13.6713 24.075 13.05C24.075 12.4287 23.5713 11.925 22.95 11.925C22.3287 11.925 21.825 12.4287 21.825 13.05C21.825 13.6713 22.3287 14.175 22.95 14.175Z" fill="#B3B3B3" />
                                </svg>