<svg width="236" height="234" viewBox="0 0 236 234" fill="none" xmlns="http://www.w3.org/2000/svg">
<path d="M54.7693 43.3959C62.2514 43.3959 68.5364 37.111 68.5364 29.6289C68.5364 22.1469 62.2514 15.8619 54.7693 15.8619C47.2871 15.8619 41.0021 22.1469 41.0021 29.6289C41.0021 37.111 47.2871 43.3959 54.7693 43.3959ZM47.2871 140.663C47.2871 142.758 49.0828 144.553 51.1778 144.553C53.2728 144.553 55.0686 142.758 55.0686 140.663C55.0686 138.568 53.2728 136.772 51.1778 136.772C49.0828 136.772 47.2871 138.568 47.2871 140.663ZM74.8214 60.7543C78.1136 60.7543 80.5078 58.0607 80.5078 55.0679C80.5078 51.7758 77.8143 49.3815 74.8214 49.3815C71.5293 49.3815 69.135 52.0751 69.135 55.0679C69.135 58.0607 71.5293 60.7543 74.8214 60.7543ZM29.6293 112.53C37.1114 112.53 43.3964 106.245 43.3964 98.7631C43.3964 91.281 37.1114 84.9961 29.6293 84.9961C22.1471 84.9961 15.8621 91.281 15.8621 98.7631C16.1614 106.245 22.1471 112.53 29.6293 112.53ZM9.87643 80.2076C13.1686 80.2076 15.5629 77.5141 15.5629 74.5212C15.5629 71.2291 12.8693 68.8349 9.87643 68.8349C6.58428 68.8349 4.19 71.5284 4.19 74.5212C4.19 77.8133 6.58428 80.2076 9.87643 80.2076ZM7.78143 92.7774C7.78143 90.6825 5.98571 88.8868 3.89071 88.8868C1.79571 88.8868 0 90.6825 0 92.7774C0 94.8724 1.79571 96.6681 3.89071 96.6681C5.98571 96.6681 7.78143 94.8724 7.78143 92.7774ZM26.0379 60.455C31.425 60.455 35.615 56.265 35.615 50.8779C35.615 45.4909 31.425 41.3009 26.0379 41.3009C20.6507 41.3009 16.4607 45.4909 16.4607 50.8779C16.4607 56.265 20.6507 60.455 26.0379 60.455ZM142.46 7.78133C144.555 7.78133 146.351 5.98564 146.351 3.89067C146.351 1.79569 144.555 0 142.46 0C140.365 0 138.569 1.79569 138.569 3.89067C138.569 5.98564 140.365 7.78133 142.46 7.78133ZM37.71 139.166C37.71 129.888 30.2279 122.406 20.95 122.406C11.6721 122.406 4.19 129.888 4.19 139.166C4.19 148.444 11.6721 155.926 20.95 155.926C30.2279 155.926 37.71 148.444 37.71 139.166ZM205.609 68.5356C213.091 68.5356 219.376 62.2507 219.376 54.7686C219.376 47.2866 213.091 41.0016 205.609 41.0016C198.127 41.0016 191.842 47.2866 191.842 54.7686C191.842 62.2507 197.828 68.5356 205.609 68.5356ZM174.783 163.109C174.783 168.496 178.973 172.686 184.36 172.686C189.747 172.686 193.937 168.496 193.937 163.109C193.937 157.722 189.747 153.532 184.36 153.532C178.973 153.532 174.783 157.722 174.783 163.109ZM184.36 35.6146C189.747 35.6146 193.937 31.4246 193.937 26.0375C193.937 20.6505 189.747 16.4605 184.36 16.4605C178.973 16.4605 174.783 20.6505 174.783 26.0375C174.783 31.4246 178.973 35.6146 184.36 35.6146ZM163.111 60.455C168.498 60.455 172.688 56.265 172.688 50.8779C172.688 45.4909 168.498 41.3009 163.111 41.3009C157.724 41.3009 153.534 45.4909 153.534 50.8779C153.534 56.265 157.724 60.455 163.111 60.455ZM197.529 94.2738C197.529 103.552 205.011 111.034 214.289 111.034C223.566 111.034 231.049 103.552 231.049 94.2738C231.049 84.9961 223.566 77.5141 214.289 77.5141C205.011 77.5141 197.529 84.9961 197.529 94.2738ZM187.951 92.7774C187.951 90.6825 186.156 88.8868 184.061 88.8868C181.966 88.8868 180.17 90.6825 180.17 92.7774C180.17 94.8724 181.966 96.6681 184.061 96.6681C186.156 96.6681 187.951 94.8724 187.951 92.7774ZM160.417 15.2634C163.709 15.2634 166.104 12.5698 166.104 9.57703C166.104 6.5842 163.41 3.89067 160.417 3.89067C157.125 3.89067 154.731 6.5842 154.731 9.57703C154.731 12.5698 157.424 15.2634 160.417 15.2634ZM178.374 80.2076C181.666 80.2076 184.061 77.5141 184.061 74.5212C184.061 71.2291 181.367 68.8349 178.374 68.8349C175.381 68.8349 172.688 71.5284 172.688 74.5212C172.688 77.8133 175.381 80.2076 178.374 80.2076ZM60.4557 70.3313C60.4557 64.9442 56.2657 60.7543 50.8786 60.7543C45.4914 60.7543 41.3014 64.9442 41.3014 70.3313C41.3014 75.7184 45.4914 79.9083 50.8786 79.9083C56.2657 79.9083 60.4557 75.7184 60.4557 70.3313ZM160.417 172.686C157.125 172.686 154.731 175.379 154.731 178.372C154.731 181.664 157.424 184.058 160.417 184.058C163.709 184.058 166.104 181.365 166.104 178.372C166.104 175.379 163.709 172.686 160.417 172.686ZM140.964 195.73C131.686 195.73 124.204 203.213 124.204 212.49C124.204 221.768 131.686 229.25 140.964 229.25C150.241 229.25 157.724 221.768 157.724 212.49C157.724 203.213 150.241 195.73 140.964 195.73ZM180.469 190.044C172.987 190.044 166.702 196.329 166.702 203.811C166.702 211.293 172.987 217.578 180.469 217.578C187.951 217.578 194.236 211.293 194.236 203.811C194.236 196.329 187.951 190.044 180.469 190.044ZM138.569 184.058C138.569 186.153 140.365 187.949 142.46 187.949C144.555 187.949 146.351 186.153 146.351 184.058C146.351 181.963 144.555 180.168 142.46 180.168C140.365 180.467 138.569 181.963 138.569 184.058ZM231.348 136.772C229.253 136.772 227.457 138.568 227.457 140.663C227.457 142.758 229.253 144.553 231.348 144.553C233.443 144.553 235.239 142.758 235.239 140.663C235.239 138.568 233.144 136.772 231.348 136.772ZM225.362 153.232C222.07 153.232 219.676 155.926 219.676 158.919C219.676 162.211 222.369 164.605 225.362 164.605C228.654 164.605 231.049 161.912 231.049 158.919C231.049 155.627 228.654 153.232 225.362 153.232ZM134.679 43.3959C142.161 43.3959 148.446 37.111 148.446 29.6289C148.446 22.1469 142.161 15.8619 134.679 15.8619C127.196 15.8619 120.911 22.1469 120.911 29.6289C120.911 37.111 127.196 43.3959 134.679 43.3959ZM205.609 120.91C198.127 120.91 191.842 127.195 191.842 134.677C191.842 142.159 198.127 148.444 205.609 148.444C213.091 148.444 219.376 142.159 219.376 134.677C219.077 127.195 213.091 120.91 205.609 120.91ZM29.6293 164.904C22.1471 164.904 15.8621 171.189 15.8621 178.671C15.8621 186.153 22.1471 192.438 29.6293 192.438C37.1114 192.438 43.3964 186.153 43.3964 178.671C43.3964 171.189 37.4107 164.904 29.6293 164.904ZM209.201 172.985C203.814 172.985 199.624 177.175 199.624 182.562C199.624 187.949 203.814 192.139 209.201 192.139C214.588 192.139 218.778 187.949 218.778 182.562C218.778 177.175 214.588 172.985 209.201 172.985ZM56.8643 153.232C53.5721 153.232 51.1778 155.926 51.1778 158.919C51.1778 162.211 53.8714 164.605 56.8643 164.605C59.8571 164.605 62.5507 161.912 62.5507 158.919C62.5507 155.627 59.8571 153.232 56.8643 153.232ZM72.1278 172.985C66.7407 172.985 62.5507 177.175 62.5507 182.562C62.5507 187.949 66.7407 192.139 72.1278 192.139C77.515 192.139 81.705 187.949 81.705 182.562C81.705 177.175 77.515 172.985 72.1278 172.985ZM74.8214 218.177C71.5293 218.177 69.135 220.87 69.135 223.863C69.135 226.856 71.8286 229.549 74.8214 229.549C78.1136 229.549 80.5078 226.856 80.5078 223.863C80.5078 220.87 77.8143 218.177 74.8214 218.177ZM50.8786 197.825C45.4914 197.825 41.3014 202.015 41.3014 207.402C41.3014 212.79 45.4914 216.979 50.8786 216.979C56.2657 216.979 60.4557 212.79 60.4557 207.402C60.4557 202.015 56.2657 197.825 50.8786 197.825ZM89.1871 49.3815C89.1871 51.4765 90.9828 53.2722 93.0778 53.2722C95.1728 53.2722 96.9685 51.4765 96.9685 49.3815C96.9685 47.2866 95.1728 45.4909 93.0778 45.4909C90.6835 45.4909 89.1871 47.2866 89.1871 49.3815ZM111.035 20.6505C111.035 11.3727 103.553 3.89067 94.275 3.89067C84.9971 3.89067 77.515 11.3727 77.515 20.6505C77.515 29.9282 84.9971 37.4103 94.275 37.4103C103.553 37.7095 111.035 30.2275 111.035 20.6505ZM92.7785 225.659C90.6836 225.659 88.8878 227.454 88.8878 229.549C88.8878 231.644 90.6836 233.44 92.7785 233.44C94.8736 233.44 96.6693 231.644 96.6693 229.549C96.6693 227.454 94.8736 225.659 92.7785 225.659ZM100.56 190.044C93.0778 190.044 86.7928 196.329 86.7928 203.811C86.7928 211.293 93.0778 217.578 100.56 217.578C108.042 217.578 114.327 211.293 114.327 203.811C114.327 196.329 108.042 190.044 100.56 190.044Z" fill="url(#paint0_linear_452_1161)"/>
<defs>
<linearGradient id="paint0_linear_452_1161" x1="0" y1="0" x2="235.239" y2="0" gradientUnits="userSpaceOnUse">
<stop stop-color="#EE2A7B"/>
<stop offset="1" stop-color="#FF7DB8"/>
</linearGradient>
</defs>
</svg>
