<svg width="36" height="36" viewBox="0 0 36 36" fill="none" xmlns="http://www.w3.org/2000/svg">
                                    <path d="M13.6688 25.875H10.3219V15.3422H13.6688V25.875ZM11.9953 13.8656C10.9125 13.8656 10.125 13.0781 10.125 11.9953C10.125 10.9125 11.0109 10.125 11.9953 10.125C13.0781 10.125 13.8656 10.9125 13.8656 11.9953C13.8656 13.0781 13.0781 13.8656 11.9953 13.8656ZM25.875 25.875H22.5281V20.1656C22.5281 18.4922 21.8391 18 20.8547 18C19.8703 18 18.8859 18.7875 18.8859 20.2641V25.875H15.5391V15.3422H18.6891V16.8188C18.9844 16.1297 20.1656 15.0469 21.8391 15.0469C23.7094 15.0469 25.6781 16.1297 25.6781 19.3781V25.875H25.875Z" fill="#B3B3B3" />
                                </svg>