<svg width="150" height="138" viewBox="0 0 150 138" fill="none" xmlns="http://www.w3.org/2000/svg">
<g filter="url(#filter0_bii_30_1067)">
<rect width="150" height="138" rx="26" fill="white" fill-opacity="0.095"/>
</g>
<path fill-rule="evenodd" clip-rule="evenodd" d="M94.4169 42.75C88.0223 42.75 81.8692 45.1922 77.2152 49.5775L74.1713 52.4456C72.914 53.6303 71.7138 54.8722 70.5743 56.167H58.8211C57.3868 56.167 56.0576 56.9195 55.3197 58.1494L48.9994 68.6833C48.7082 69.1686 48.6697 69.7648 48.896 70.2835C49.1224 70.8022 49.5856 71.1795 50.1395 71.2961L60.8068 73.5418C60.897 73.6567 60.9969 73.7661 61.1062 73.8687L65.7635 78.2393L70.1314 82.8939C70.2341 83.0033 70.3435 83.1032 70.4585 83.1935L72.7042 93.8608C72.8208 94.4146 73.1981 94.8779 73.7168 95.1042C74.2355 95.3306 74.8317 95.2921 75.317 95.0009L85.8509 88.6806C87.0808 87.9427 87.8333 86.6135 87.8333 85.1792V73.4251C89.1287 72.285 90.3711 71.0841 91.5562 69.8261L94.4217 66.7843C98.8076 62.1287 101.249 55.9734 101.247 49.5772L101.247 46.8321C101.246 44.5774 99.4179 42.75 97.1632 42.75H94.4169ZM84.3333 76.2618C83.5571 76.8402 82.7655 77.3986 81.9591 77.9361L74.0398 83.2156L75.623 90.7357L84.0501 85.6794C84.2258 85.574 84.3333 85.3841 84.3333 85.1792V76.2618ZM60.7844 69.9604L66.0656 62.0386C66.6026 61.2331 67.1603 60.4423 67.738 59.667H58.8211C58.6162 59.667 58.4263 59.7745 58.3209 59.9502L53.2646 68.3773L60.7844 69.9604ZM79.6154 52.1248C83.62 48.3514 88.9146 46.25 94.4169 46.25H97.1632C97.4853 46.25 97.7465 46.5111 97.7466 46.8332L97.7474 49.5783C97.749 55.0819 95.648 60.3783 91.8741 64.3844L89.0086 67.4261C86.3094 70.2914 83.293 72.8404 80.0176 75.024L72.3456 80.1387L68.2777 75.8038C68.2523 75.7768 68.2261 75.7505 68.1991 75.7252L63.8615 71.6545L68.9778 63.9801C71.1603 60.7063 73.7079 57.6912 76.5715 54.9929L79.6154 52.1248ZM87.8333 59.6667C87.8333 61.5997 86.2663 63.1667 84.3333 63.1667C82.4003 63.1667 80.8333 61.5997 80.8333 59.6667C80.8333 57.7337 82.4003 56.1667 84.3333 56.1667C86.2663 56.1667 87.8333 57.7337 87.8333 59.6667ZM62.1666 90C64.2662 87.9004 64.2663 83.9331 62.1667 81.8334C60.0671 79.7338 56.0996 79.7338 53.9999 81.8334C51.1794 84.6539 50.6283 90.9363 50.5237 92.9009C50.5062 93.23 50.77 93.4938 51.0991 93.4762C53.0638 93.3715 59.3466 92.8201 62.1666 90Z" fill="#BDBDBD"/>
<defs>
<filter id="filter0_bii_30_1067" x="-74.4293" y="-74.4293" width="298.859" height="286.859" filterUnits="userSpaceOnUse" color-interpolation-filters="sRGB">
<feFlood flood-opacity="0" result="BackgroundImageFix"/>
<feGaussianBlur in="BackgroundImageFix" stdDeviation="37.2147"/>
<feComposite in2="SourceAlpha" operator="in" result="effect1_backgroundBlur_30_1067"/>
<feBlend mode="normal" in="SourceGraphic" in2="effect1_backgroundBlur_30_1067" result="shape"/>
<feColorMatrix in="SourceAlpha" type="matrix" values="0 0 0 0 0 0 0 0 0 0 0 0 0 0 0 0 0 0 127 0" result="hardAlpha"/>
<feOffset dx="-3.01333" dy="3.01333"/>
<feGaussianBlur stdDeviation="1.50667"/>
<feComposite in2="hardAlpha" operator="arithmetic" k2="-1" k3="1"/>
<feColorMatrix type="matrix" values="0 0 0 0 1 0 0 0 0 1 0 0 0 0 1 0 0 0 0.39 0"/>
<feBlend mode="normal" in2="shape" result="effect2_innerShadow_30_1067"/>
<feColorMatrix in="SourceAlpha" type="matrix" values="0 0 0 0 0 0 0 0 0 0 0 0 0 0 0 0 0 0 127 0" result="hardAlpha"/>
<feOffset dx="2.01" dy="-2.01"/>
<feGaussianBlur stdDeviation="10"/>
<feComposite in2="hardAlpha" operator="arithmetic" k2="-1" k3="1"/>
<feColorMatrix type="matrix" values="0 0 0 0 0.84 0 0 0 0 0.84 0 0 0 0 0.84 0 0 0 0.17 0"/>
<feBlend mode="normal" in2="effect2_innerShadow_30_1067" result="effect3_innerShadow_30_1067"/>
</filter>
</defs>
</svg>
